<svg width="102" height="16" viewBox="0 0 102 16" fill="none" xmlns="http://www.w3.org/2000/svg">
<path d="M2.21 11.8V13.93H17.72V16H0.11V10.36L14.84 4.84C15.08 4.74 15.27 4.59 15.41 4.39C15.57 4.17 15.65 3.93 15.65 3.67C15.65 3.33 15.52 3.04 15.26 2.8C15.02 2.54 14.73 2.41 14.39 2.41H0.11V0.34H14.39C14.85 0.34 15.28 0.43 15.68 0.61C16.08 0.79 16.43 1.03 16.73 1.33C17.03 1.63 17.27 1.98 17.45 2.38C17.63 2.78 17.72 3.21 17.72 3.67C17.72 4.37 17.52 5.01 17.12 5.59C16.72 6.15 16.2 6.55 15.56 6.79L2.21 11.8ZM30.1733 0.34C31.2333 0.34 32.2233 0.539999 33.1433 0.939999C34.0833 1.34 34.8933 1.89 35.5733 2.59C36.2733 3.27 36.8233 4.08 37.2233 5.02C37.6233 5.94 37.8233 6.93 37.8233 7.99C37.8233 9.09 37.6133 10.13 37.1933 11.11C36.7733 12.07 36.2033 12.92 35.4833 13.66C34.7633 14.38 33.9133 14.95 32.9333 15.37C31.9733 15.79 30.9433 16 29.8433 16H20.2133V5.26H22.3133V13.93H29.8433C30.6633 13.93 31.4233 13.78 32.1233 13.48C32.8433 13.16 33.4733 12.73 34.0133 12.19C34.5533 11.65 34.9733 11.02 35.2733 10.3C35.5933 9.58 35.7533 8.81 35.7533 7.99C35.7533 7.23 35.6033 6.51 35.3033 5.83C35.0233 5.15 34.6233 4.56 34.1033 4.06C33.6033 3.54 33.0133 3.14 32.3333 2.86C31.6533 2.56 30.9333 2.41 30.1733 2.41H20.2133V0.34H30.1733ZM40.0709 7.21C40.0709 6.27 40.2509 5.38 40.6109 4.54C40.9709 3.7 41.4609 2.97 42.0809 2.35C42.7209 1.73 43.4509 1.24 44.2709 0.88C45.1109 0.52 46.0109 0.34 46.9709 0.34H57.6809V16H55.6109V10.18H44.9909V8.08H55.6109V2.41H46.9709C46.3109 2.41 45.6909 2.54 45.1109 2.8C44.5309 3.04 44.0209 3.38 43.5809 3.82C43.1409 4.26 42.7909 4.77 42.5309 5.35C42.2909 5.93 42.1709 6.55 42.1709 7.21V16H40.0709V7.21ZM65.9893 8.23C65.1893 8.23 64.4293 8.08 63.7093 7.78C63.0093 7.46 62.3893 7.04 61.8493 6.52C61.3293 6 60.9093 5.39 60.5893 4.69C60.2893 3.97 60.1393 3.21 60.1393 2.41V0.34H62.2393V2.41C62.2393 2.93 62.3393 3.42 62.5393 3.88C62.7393 4.32 63.0093 4.71 63.3493 5.05C63.6893 5.39 64.0793 5.66 64.5193 5.86C64.9793 6.06 65.4693 6.16 65.9893 6.16H71.9293C72.4493 6.16 72.9293 6.06 73.3693 5.86C73.8293 5.66 74.2293 5.39 74.5693 5.05C74.9093 4.71 75.1793 4.32 75.3793 3.88C75.5793 3.42 75.6793 2.93 75.6793 2.41V0.34H77.7493V2.41C77.7493 3.21 77.5893 3.97 77.2693 4.69C76.9693 5.39 76.5593 6 76.0393 6.52C75.5193 7.04 74.8993 7.46 74.1793 7.78C73.4793 8.08 72.7293 8.23 71.9293 8.23H70.0093V16H67.9093V8.23H65.9893ZM80.0026 4.27V0.34H82.1026V4.27H80.0026ZM101.919 11.08C101.919 11.76 101.789 12.4 101.529 13C101.269 13.58 100.919 14.1 100.479 14.56C100.039 15 99.5192 15.35 98.9192 15.61C98.3192 15.87 97.6792 16 96.9992 16H84.3092V13.93H96.9992C97.3992 13.93 97.7692 13.86 98.1092 13.72C98.4492 13.56 98.7492 13.35 99.0092 13.09C99.2692 12.83 99.4692 12.53 99.6092 12.19C99.7692 11.83 99.8492 11.46 99.8492 11.08C99.8492 10.68 99.7692 10.31 99.6092 9.97C99.4692 9.63 99.2692 9.33 99.0092 9.07C98.7492 8.81 98.4492 8.61 98.1092 8.47C97.7692 8.31 97.3992 8.23 96.9992 8.23H88.2692C87.7292 8.23 87.2192 8.13 86.7392 7.93C86.2592 7.71 85.8392 7.42 85.4792 7.06C85.1192 6.7 84.8292 6.28 84.6092 5.8C84.4092 5.32 84.3092 4.81 84.3092 4.27C84.3092 3.73 84.4092 3.22 84.6092 2.74C84.8292 2.26 85.1192 1.85 85.4792 1.51C85.8392 1.15 86.2592 0.869999 86.7392 0.669999C87.2192 0.449999 87.7292 0.34 88.2692 0.34H101.919V2.41H88.2692C87.7492 2.41 87.3092 2.59 86.9492 2.95C86.5892 3.31 86.4092 3.75 86.4092 4.27C86.4092 4.79 86.5892 5.24 86.9492 5.62C87.3092 5.98 87.7492 6.16 88.2692 6.16H96.9992C97.6792 6.16 98.3192 6.29 98.9192 6.55C99.5192 6.81 100.039 7.16 100.479 7.6C100.919 8.04 101.269 8.56 101.529 9.16C101.789 9.76 101.919 10.4 101.919 11.08Z" fill="#222222"/>
</svg>
